<svg width="270" height="22" viewBox="0 0 270 22" fill="none" xmlns="http://www.w3.org/2000/svg">
<path d="M27.4609 6.60156C26.2057 6.60156 25.2135 7.02083 24.4844 7.85938C23.7604 8.69271 23.3984 9.83594 23.3984 11.2891C23.3984 12.7839 23.7474 13.9401 24.4453 14.7578C25.1484 15.5703 26.1484 15.9766 27.4453 15.9766C28.2422 15.9766 29.151 15.8333 30.1719 15.5469V16.7109C29.3802 17.0078 28.4036 17.1562 27.2422 17.1562C25.5599 17.1562 24.2604 16.6458 23.3438 15.625C22.4323 14.6042 21.9766 13.1536 21.9766 11.2734C21.9766 10.0964 22.1953 9.0651 22.6328 8.17969C23.0755 7.29427 23.7109 6.61198 24.5391 6.13281C25.3724 5.65365 26.3516 5.41406 27.4766 5.41406C28.6745 5.41406 29.7214 5.63281 30.6172 6.07031L30.0547 7.21094C29.1901 6.80469 28.3255 6.60156 27.4609 6.60156ZM39.8594 12.7109C39.8594 14.1068 39.5078 15.1979 38.8047 15.9844C38.1016 16.7656 37.1302 17.1562 35.8906 17.1562C35.125 17.1562 34.4453 16.9766 33.8516 16.6172C33.2578 16.2578 32.7995 15.7422 32.4766 15.0703C32.1536 14.3984 31.9922 13.612 31.9922 12.7109C31.9922 11.3151 32.3411 10.2292 33.0391 9.45312C33.737 8.67188 34.7057 8.28125 35.9453 8.28125C37.1432 8.28125 38.0938 8.67969 38.7969 9.47656C39.5052 10.2734 39.8594 11.3516 39.8594 12.7109ZM33.3359 12.7109C33.3359 13.8047 33.5547 14.638 33.9922 15.2109C34.4297 15.7839 35.0729 16.0703 35.9219 16.0703C36.7708 16.0703 37.4141 15.7865 37.8516 15.2188C38.2943 14.6458 38.5156 13.8099 38.5156 12.7109C38.5156 11.6224 38.2943 10.7969 37.8516 10.2344C37.4141 9.66667 36.7656 9.38281 35.9062 9.38281C35.0573 9.38281 34.4167 9.66146 33.9844 10.2188C33.5521 10.776 33.3359 11.6068 33.3359 12.7109ZM46.125 17.1562C45.5677 17.1562 45.0573 17.0547 44.5938 16.8516C44.1354 16.6432 43.75 16.3255 43.4375 15.8984H43.3438C43.4062 16.3984 43.4375 16.8724 43.4375 17.3203V20.8438H42.1406V8.4375H43.1953L43.375 9.60938H43.4375C43.7708 9.14062 44.1589 8.80208 44.6016 8.59375C45.0443 8.38542 45.5521 8.28125 46.125 8.28125C47.2604 8.28125 48.1354 8.66927 48.75 9.44531C49.3698 10.2214 49.6797 11.3099 49.6797 12.7109C49.6797 14.1172 49.3646 15.2109 48.7344 15.9922C48.1094 16.7682 47.2396 17.1562 46.125 17.1562ZM45.9375 9.38281C45.0625 9.38281 44.4297 9.625 44.0391 10.1094C43.6484 10.5938 43.4479 11.3646 43.4375 12.4219V12.7109C43.4375 13.9141 43.638 14.776 44.0391 15.2969C44.4401 15.8125 45.0833 16.0703 45.9688 16.0703C46.7083 16.0703 47.2865 15.7708 47.7031 15.1719C48.125 14.5729 48.3359 13.7474 48.3359 12.6953C48.3359 11.6276 48.125 10.8099 47.7031 10.2422C47.2865 9.66927 46.6979 9.38281 45.9375 9.38281ZM50.5938 8.4375H51.9844L53.8594 13.3203C54.2708 14.4349 54.526 15.2396 54.625 15.7344H54.6875C54.7552 15.4688 54.8958 15.0156 55.1094 14.375C55.3281 13.7292 56.0365 11.75 57.2344 8.4375H58.625L54.9453 18.1875C54.5807 19.151 54.1536 19.8333 53.6641 20.2344C53.1797 20.6406 52.5833 20.8438 51.875 20.8438C51.4792 20.8438 51.0885 20.7995 50.7031 20.7109V19.6719C50.9896 19.7344 51.3099 19.7656 51.6641 19.7656C52.5547 19.7656 53.1901 19.2656 53.5703 18.2656L54.0469 17.0469L50.5938 8.4375ZM63.9219 8.28125C64.3021 8.28125 64.6432 8.3125 64.9453 8.375L64.7656 9.57812C64.4115 9.5 64.099 9.46094 63.8281 9.46094C63.1354 9.46094 62.5417 9.74219 62.0469 10.3047C61.5573 10.8672 61.3125 11.5677 61.3125 12.4062V17H60.0156V8.4375H61.0859L61.2344 10.0234H61.2969C61.6146 9.46615 61.9974 9.03646 62.4453 8.73438C62.8932 8.43229 63.3854 8.28125 63.9219 8.28125ZM67.8438 17H66.5469V8.4375H67.8438V17ZM66.4375 6.11719C66.4375 5.82031 66.5104 5.60417 66.6562 5.46875C66.8021 5.32812 66.9844 5.25781 67.2031 5.25781C67.4115 5.25781 67.5911 5.32812 67.7422 5.46875C67.8932 5.60938 67.9688 5.82552 67.9688 6.11719C67.9688 6.40885 67.8932 6.6276 67.7422 6.77344C67.5911 6.91406 67.4115 6.98438 67.2031 6.98438C66.9844 6.98438 66.8021 6.91406 66.6562 6.77344C66.5104 6.6276 66.4375 6.40885 66.4375 6.11719ZM77.6016 8.4375V9.25781L76.0156 9.44531C76.1615 9.6276 76.2917 9.86719 76.4062 10.1641C76.5208 10.4557 76.5781 10.7865 76.5781 11.1562C76.5781 11.9948 76.2917 12.6641 75.7188 13.1641C75.1458 13.6641 74.3594 13.9141 73.3594 13.9141C73.1042 13.9141 72.8646 13.8932 72.6406 13.8516C72.0885 14.1432 71.8125 14.5104 71.8125 14.9531C71.8125 15.1875 71.9089 15.362 72.1016 15.4766C72.2943 15.5859 72.625 15.6406 73.0938 15.6406H74.6094C75.5365 15.6406 76.2474 15.8359 76.7422 16.2266C77.2422 16.6172 77.4922 17.1849 77.4922 17.9297C77.4922 18.8776 77.112 19.599 76.3516 20.0938C75.5911 20.5938 74.4818 20.8438 73.0234 20.8438C71.9036 20.8438 71.0391 20.6354 70.4297 20.2188C69.8255 19.8021 69.5234 19.2135 69.5234 18.4531C69.5234 17.9323 69.6901 17.4818 70.0234 17.1016C70.3568 16.7214 70.8255 16.4635 71.4297 16.3281C71.2109 16.2292 71.026 16.0755 70.875 15.8672C70.7292 15.6589 70.6562 15.4167 70.6562 15.1406C70.6562 14.8281 70.7396 14.5547 70.9062 14.3203C71.0729 14.0859 71.3359 13.8594 71.6953 13.6406C71.2526 13.4583 70.8906 13.1484 70.6094 12.7109C70.3333 12.2734 70.1953 11.7734 70.1953 11.2109C70.1953 10.2734 70.4766 9.55208 71.0391 9.04688C71.6016 8.53646 72.3984 8.28125 73.4297 8.28125C73.8776 8.28125 74.2812 8.33333 74.6406 8.4375H77.6016ZM70.7734 18.4375C70.7734 18.901 70.9688 19.2526 71.3594 19.4922C71.75 19.7318 72.3099 19.8516 73.0391 19.8516C74.1276 19.8516 74.9323 19.6875 75.4531 19.3594C75.9792 19.0365 76.2422 18.5964 76.2422 18.0391C76.2422 17.5755 76.099 17.2526 75.8125 17.0703C75.526 16.8932 74.987 16.8047 74.1953 16.8047H72.6406C72.0521 16.8047 71.5938 16.9453 71.2656 17.2266C70.9375 17.5078 70.7734 17.9115 70.7734 18.4375ZM71.4766 11.1797C71.4766 11.7786 71.6458 12.2318 71.9844 12.5391C72.3229 12.8464 72.7943 13 73.3984 13C74.6641 13 75.2969 12.3854 75.2969 11.1562C75.2969 9.86979 74.6562 9.22656 73.375 9.22656C72.7656 9.22656 72.2969 9.39062 71.9688 9.71875C71.6406 10.0469 71.4766 10.5339 71.4766 11.1797ZM85.2188 17V11.4609C85.2188 10.763 85.0599 10.2422 84.7422 9.89844C84.4245 9.55469 83.9271 9.38281 83.25 9.38281C82.349 9.38281 81.6901 9.6276 81.2734 10.1172C80.862 10.6068 80.6562 11.4089 80.6562 12.5234V17H79.3594V4.84375H80.6562V8.52344C80.6562 8.96615 80.6354 9.33333 80.5938 9.625H80.6719C80.9271 9.21354 81.2891 8.89062 81.7578 8.65625C82.2318 8.41667 82.7708 8.29688 83.375 8.29688C84.4219 8.29688 85.2057 8.54688 85.7266 9.04688C86.2526 9.54167 86.5156 10.3307 86.5156 11.4141V17H85.2188ZM91.9531 16.0859C92.1823 16.0859 92.4036 16.0703 92.6172 16.0391C92.8307 16.0026 93 15.9661 93.125 15.9297V16.9219C92.9844 16.9896 92.776 17.0443 92.5 17.0859C92.2292 17.1328 91.9844 17.1562 91.7656 17.1562C90.1094 17.1562 89.2812 16.2839 89.2812 14.5391V9.44531H88.0547V8.82031L89.2812 8.28125L89.8281 6.45312H90.5781V8.4375H93.0625V9.44531H90.5781V14.4844C90.5781 15 90.7005 15.3958 90.9453 15.6719C91.1901 15.9479 91.526 16.0859 91.9531 16.0859ZM105.914 17H98.4062V15.8828L101.414 12.8594C102.331 11.9323 102.935 11.2708 103.227 10.875C103.518 10.4792 103.737 10.0938 103.883 9.71875C104.029 9.34375 104.102 8.9401 104.102 8.50781C104.102 7.89844 103.917 7.41667 103.547 7.0625C103.177 6.70312 102.664 6.52344 102.008 6.52344C101.534 6.52344 101.083 6.60156 100.656 6.75781C100.234 6.91406 99.763 7.19792 99.2422 7.60938L98.5547 6.72656C99.6068 5.85156 100.753 5.41406 101.992 5.41406C103.065 5.41406 103.906 5.6901 104.516 6.24219C105.125 6.78906 105.43 7.52604 105.43 8.45312C105.43 9.17708 105.227 9.89323 104.82 10.6016C104.414 11.3099 103.654 12.2057 102.539 13.2891L100.039 15.7344V15.7969H105.914V17ZM115.133 11.2734C115.133 13.2474 114.82 14.7214 114.195 15.6953C113.576 16.6693 112.625 17.1562 111.344 17.1562C110.115 17.1562 109.18 16.6589 108.539 15.6641C107.898 14.6641 107.578 13.2005 107.578 11.2734C107.578 9.28385 107.888 7.80729 108.508 6.84375C109.128 5.88021 110.073 5.39844 111.344 5.39844C112.583 5.39844 113.523 5.90104 114.164 6.90625C114.81 7.91146 115.133 9.36719 115.133 11.2734ZM108.891 11.2734C108.891 12.9349 109.086 14.1458 109.477 14.9062C109.867 15.6615 110.49 16.0391 111.344 16.0391C112.208 16.0391 112.833 15.6562 113.219 14.8906C113.609 14.1198 113.805 12.9141 113.805 11.2734C113.805 9.63281 113.609 8.43229 113.219 7.67188C112.833 6.90625 112.208 6.52344 111.344 6.52344C110.49 6.52344 109.867 6.90104 109.477 7.65625C109.086 8.40625 108.891 9.61198 108.891 11.2734ZM124.227 17H116.719V15.8828L119.727 12.8594C120.643 11.9323 121.247 11.2708 121.539 10.875C121.831 10.4792 122.049 10.0938 122.195 9.71875C122.341 9.34375 122.414 8.9401 122.414 8.50781C122.414 7.89844 122.229 7.41667 121.859 7.0625C121.49 6.70312 120.977 6.52344 120.32 6.52344C119.846 6.52344 119.396 6.60156 118.969 6.75781C118.547 6.91406 118.076 7.19792 117.555 7.60938L116.867 6.72656C117.919 5.85156 119.065 5.41406 120.305 5.41406C121.378 5.41406 122.219 5.6901 122.828 6.24219C123.438 6.78906 123.742 7.52604 123.742 8.45312C123.742 9.17708 123.539 9.89323 123.133 10.6016C122.727 11.3099 121.966 12.2057 120.852 13.2891L118.352 15.7344V15.7969H124.227V17ZM130.68 17H129.414V8.85938C129.414 8.18229 129.435 7.54167 129.477 6.9375C129.367 7.04688 129.245 7.16146 129.109 7.28125C128.974 7.40104 128.354 7.90885 127.25 8.80469L126.562 7.91406L129.586 5.57812H130.68V17ZM135.438 16.1719C135.438 15.8229 135.516 15.5599 135.672 15.3828C135.833 15.2005 136.062 15.1094 136.359 15.1094C136.661 15.1094 136.896 15.2005 137.062 15.3828C137.234 15.5599 137.32 15.8229 137.32 16.1719C137.32 16.5104 137.234 16.7708 137.062 16.9531C136.891 17.1354 136.656 17.2266 136.359 17.2266C136.094 17.2266 135.872 17.1458 135.695 16.9844C135.523 16.8177 135.438 16.5469 135.438 16.1719ZM151.422 17L150 13.3672H145.422L144.016 17H142.672L147.188 5.53125H148.305L152.797 17H151.422ZM149.586 12.1719L148.258 8.63281C148.086 8.1849 147.909 7.63542 147.727 6.98438C147.612 7.48438 147.448 8.03385 147.234 8.63281L145.891 12.1719H149.586ZM155.469 17H154.172V4.84375H155.469V17ZM159.516 17H158.219V4.84375H159.516V17ZM170.328 8.28125C170.708 8.28125 171.049 8.3125 171.352 8.375L171.172 9.57812C170.818 9.5 170.505 9.46094 170.234 9.46094C169.542 9.46094 168.948 9.74219 168.453 10.3047C167.964 10.8672 167.719 11.5677 167.719 12.4062V17H166.422V8.4375H167.492L167.641 10.0234H167.703C168.021 9.46615 168.404 9.03646 168.852 8.73438C169.299 8.43229 169.792 8.28125 170.328 8.28125ZM174.25 17H172.953V8.4375H174.25V17ZM172.844 6.11719C172.844 5.82031 172.917 5.60417 173.062 5.46875C173.208 5.32812 173.391 5.25781 173.609 5.25781C173.818 5.25781 173.997 5.32812 174.148 5.46875C174.299 5.60938 174.375 5.82552 174.375 6.11719C174.375 6.40885 174.299 6.6276 174.148 6.77344C173.997 6.91406 173.818 6.98438 173.609 6.98438C173.391 6.98438 173.208 6.91406 173.062 6.77344C172.917 6.6276 172.844 6.40885 172.844 6.11719ZM184.008 8.4375V9.25781L182.422 9.44531C182.568 9.6276 182.698 9.86719 182.812 10.1641C182.927 10.4557 182.984 10.7865 182.984 11.1562C182.984 11.9948 182.698 12.6641 182.125 13.1641C181.552 13.6641 180.766 13.9141 179.766 13.9141C179.51 13.9141 179.271 13.8932 179.047 13.8516C178.495 14.1432 178.219 14.5104 178.219 14.9531C178.219 15.1875 178.315 15.362 178.508 15.4766C178.701 15.5859 179.031 15.6406 179.5 15.6406H181.016C181.943 15.6406 182.654 15.8359 183.148 16.2266C183.648 16.6172 183.898 17.1849 183.898 17.9297C183.898 18.8776 183.518 19.599 182.758 20.0938C181.997 20.5938 180.888 20.8438 179.43 20.8438C178.31 20.8438 177.445 20.6354 176.836 20.2188C176.232 19.8021 175.93 19.2135 175.93 18.4531C175.93 17.9323 176.096 17.4818 176.43 17.1016C176.763 16.7214 177.232 16.4635 177.836 16.3281C177.617 16.2292 177.432 16.0755 177.281 15.8672C177.135 15.6589 177.062 15.4167 177.062 15.1406C177.062 14.8281 177.146 14.5547 177.312 14.3203C177.479 14.0859 177.742 13.8594 178.102 13.6406C177.659 13.4583 177.297 13.1484 177.016 12.7109C176.74 12.2734 176.602 11.7734 176.602 11.2109C176.602 10.2734 176.883 9.55208 177.445 9.04688C178.008 8.53646 178.805 8.28125 179.836 8.28125C180.284 8.28125 180.688 8.33333 181.047 8.4375H184.008ZM177.18 18.4375C177.18 18.901 177.375 19.2526 177.766 19.4922C178.156 19.7318 178.716 19.8516 179.445 19.8516C180.534 19.8516 181.339 19.6875 181.859 19.3594C182.385 19.0365 182.648 18.5964 182.648 18.0391C182.648 17.5755 182.505 17.2526 182.219 17.0703C181.932 16.8932 181.393 16.8047 180.602 16.8047H179.047C178.458 16.8047 178 16.9453 177.672 17.2266C177.344 17.5078 177.18 17.9115 177.18 18.4375ZM177.883 11.1797C177.883 11.7786 178.052 12.2318 178.391 12.5391C178.729 12.8464 179.201 13 179.805 13C181.07 13 181.703 12.3854 181.703 11.1562C181.703 9.86979 181.062 9.22656 179.781 9.22656C179.172 9.22656 178.703 9.39062 178.375 9.71875C178.047 10.0469 177.883 10.5339 177.883 11.1797ZM191.625 17V11.4609C191.625 10.763 191.466 10.2422 191.148 9.89844C190.831 9.55469 190.333 9.38281 189.656 9.38281C188.755 9.38281 188.096 9.6276 187.68 10.1172C187.268 10.6068 187.062 11.4089 187.062 12.5234V17H185.766V4.84375H187.062V8.52344C187.062 8.96615 187.042 9.33333 187 9.625H187.078C187.333 9.21354 187.695 8.89062 188.164 8.65625C188.638 8.41667 189.177 8.29688 189.781 8.29688C190.828 8.29688 191.612 8.54688 192.133 9.04688C192.659 9.54167 192.922 10.3307 192.922 11.4141V17H191.625ZM198.359 16.0859C198.589 16.0859 198.81 16.0703 199.023 16.0391C199.237 16.0026 199.406 15.9661 199.531 15.9297V16.9219C199.391 16.9896 199.182 17.0443 198.906 17.0859C198.635 17.1328 198.391 17.1562 198.172 17.1562C196.516 17.1562 195.688 16.2839 195.688 14.5391V9.44531H194.461V8.82031L195.688 8.28125L196.234 6.45312H196.984V8.4375H199.469V9.44531H196.984V14.4844C196.984 15 197.107 15.3958 197.352 15.6719C197.596 15.9479 197.932 16.0859 198.359 16.0859ZM209.312 8.28125C209.693 8.28125 210.034 8.3125 210.336 8.375L210.156 9.57812C209.802 9.5 209.49 9.46094 209.219 9.46094C208.526 9.46094 207.932 9.74219 207.438 10.3047C206.948 10.8672 206.703 11.5677 206.703 12.4062V17H205.406V8.4375H206.477L206.625 10.0234H206.688C207.005 9.46615 207.388 9.03646 207.836 8.73438C208.284 8.43229 208.776 8.28125 209.312 8.28125ZM215.555 17.1562C214.289 17.1562 213.289 16.7708 212.555 16C211.826 15.2292 211.461 14.1589 211.461 12.7891C211.461 11.4089 211.799 10.3125 212.477 9.5C213.159 8.6875 214.073 8.28125 215.219 8.28125C216.292 8.28125 217.141 8.63542 217.766 9.34375C218.391 10.0469 218.703 10.9766 218.703 12.1328V12.9531H212.805C212.831 13.9583 213.083 14.7214 213.562 15.2422C214.047 15.763 214.727 16.0234 215.602 16.0234C216.523 16.0234 217.435 15.8307 218.336 15.4453V16.6016C217.878 16.7995 217.443 16.9401 217.031 17.0234C216.625 17.112 216.133 17.1562 215.555 17.1562ZM215.203 9.36719C214.516 9.36719 213.966 9.59115 213.555 10.0391C213.148 10.487 212.909 11.1068 212.836 11.8984H217.312C217.312 11.0807 217.13 10.4557 216.766 10.0234C216.401 9.58594 215.88 9.36719 215.203 9.36719ZM226.445 14.6641C226.445 15.4609 226.148 16.0755 225.555 16.5078C224.961 16.9401 224.128 17.1562 223.055 17.1562C221.919 17.1562 221.034 16.9766 220.398 16.6172V15.4141C220.81 15.6224 221.25 15.7865 221.719 15.9062C222.193 16.026 222.648 16.0859 223.086 16.0859C223.763 16.0859 224.284 15.9792 224.648 15.7656C225.013 15.5469 225.195 15.2161 225.195 14.7734C225.195 14.4401 225.049 14.1562 224.758 13.9219C224.471 13.6823 223.909 13.401 223.07 13.0781C222.273 12.7812 221.706 12.5234 221.367 12.3047C221.034 12.0807 220.784 11.8281 220.617 11.5469C220.456 11.2656 220.375 10.9297 220.375 10.5391C220.375 9.84115 220.659 9.29167 221.227 8.89062C221.794 8.48438 222.573 8.28125 223.562 8.28125C224.484 8.28125 225.385 8.46875 226.266 8.84375L225.805 9.89844C224.945 9.54427 224.167 9.36719 223.469 9.36719C222.854 9.36719 222.391 9.46354 222.078 9.65625C221.766 9.84896 221.609 10.1146 221.609 10.4531C221.609 10.6823 221.667 10.8776 221.781 11.0391C221.901 11.2005 222.091 11.3542 222.352 11.5C222.612 11.6458 223.112 11.8568 223.852 12.1328C224.867 12.5026 225.552 12.875 225.906 13.25C226.266 13.625 226.445 14.0964 226.445 14.6641ZM232.18 17.1562C230.914 17.1562 229.914 16.7708 229.18 16C228.451 15.2292 228.086 14.1589 228.086 12.7891C228.086 11.4089 228.424 10.3125 229.102 9.5C229.784 8.6875 230.698 8.28125 231.844 8.28125C232.917 8.28125 233.766 8.63542 234.391 9.34375C235.016 10.0469 235.328 10.9766 235.328 12.1328V12.9531H229.43C229.456 13.9583 229.708 14.7214 230.188 15.2422C230.672 15.763 231.352 16.0234 232.227 16.0234C233.148 16.0234 234.06 15.8307 234.961 15.4453V16.6016C234.503 16.7995 234.068 16.9401 233.656 17.0234C233.25 17.112 232.758 17.1562 232.18 17.1562ZM231.828 9.36719C231.141 9.36719 230.591 9.59115 230.18 10.0391C229.773 10.487 229.534 11.1068 229.461 11.8984H233.938C233.938 11.0807 233.755 10.4557 233.391 10.0234C233.026 9.58594 232.505 9.36719 231.828 9.36719ZM241.453 8.28125C241.833 8.28125 242.174 8.3125 242.477 8.375L242.297 9.57812C241.943 9.5 241.63 9.46094 241.359 9.46094C240.667 9.46094 240.073 9.74219 239.578 10.3047C239.089 10.8672 238.844 11.5677 238.844 12.4062V17H237.547V8.4375H238.617L238.766 10.0234H238.828C239.146 9.46615 239.529 9.03646 239.977 8.73438C240.424 8.43229 240.917 8.28125 241.453 8.28125ZM245.953 17L242.703 8.4375H244.094L245.938 13.5156C246.354 14.7031 246.599 15.474 246.672 15.8281H246.734C246.792 15.5521 246.971 14.9818 247.273 14.1172C247.581 13.2474 248.266 11.3542 249.328 8.4375H250.719L247.469 17H245.953ZM255.711 17.1562C254.445 17.1562 253.445 16.7708 252.711 16C251.982 15.2292 251.617 14.1589 251.617 12.7891C251.617 11.4089 251.956 10.3125 252.633 9.5C253.315 8.6875 254.229 8.28125 255.375 8.28125C256.448 8.28125 257.297 8.63542 257.922 9.34375C258.547 10.0469 258.859 10.9766 258.859 12.1328V12.9531H252.961C252.987 13.9583 253.24 14.7214 253.719 15.2422C254.203 15.763 254.883 16.0234 255.758 16.0234C256.68 16.0234 257.591 15.8307 258.492 15.4453V16.6016C258.034 16.7995 257.599 16.9401 257.188 17.0234C256.781 17.112 256.289 17.1562 255.711 17.1562ZM255.359 9.36719C254.672 9.36719 254.122 9.59115 253.711 10.0391C253.305 10.487 253.065 11.1068 252.992 11.8984H257.469C257.469 11.0807 257.286 10.4557 256.922 10.0234C256.557 9.58594 256.036 9.36719 255.359 9.36719ZM266.906 15.8516H266.836C266.237 16.7214 265.341 17.1562 264.148 17.1562C263.029 17.1562 262.156 16.7734 261.531 16.0078C260.911 15.2422 260.602 14.1536 260.602 12.7422C260.602 11.3307 260.914 10.2344 261.539 9.45312C262.164 8.67188 263.034 8.28125 264.148 8.28125C265.31 8.28125 266.201 8.70312 266.82 9.54688H266.922L266.867 8.92969L266.836 8.32812V4.84375H268.133V17H267.078L266.906 15.8516ZM264.312 16.0703C265.198 16.0703 265.839 15.8307 266.234 15.3516C266.635 14.8672 266.836 14.0885 266.836 13.0156V12.7422C266.836 11.5286 266.633 10.6641 266.227 10.1484C265.826 9.6276 265.182 9.36719 264.297 9.36719C263.536 9.36719 262.953 9.66406 262.547 10.2578C262.146 10.8464 261.945 11.6797 261.945 12.7578C261.945 13.8516 262.146 14.6771 262.547 15.2344C262.948 15.7917 263.536 16.0703 264.312 16.0703Z" fill="white"/>
<path d="M7.99999 4.33337C4.31666 4.33337 1.33333 7.31671 1.33333 11C1.33333 14.6834 4.31666 17.6667 7.99999 17.6667C11.6833 17.6667 14.6667 14.6834 14.6667 11C14.6667 7.31671 11.6833 4.33337 7.99999 4.33337ZM7.99999 16.3334C5.05999 16.3334 2.66666 13.94 2.66666 11C2.66666 8.06004 5.05999 5.66671 7.99999 5.66671C10.94 5.66671 13.3333 8.06004 13.3333 11C13.3333 13.94 10.94 16.3334 7.99999 16.3334ZM6.71999 10.2434C6.75666 10.0267 6.82333 9.83337 6.91999 9.66337C7.01666 9.49337 7.14999 9.35671 7.31333 9.25337C7.46999 9.15671 7.66666 9.10337 7.90999 9.10004C8.06999 9.10337 8.21666 9.13004 8.34333 9.18671C8.47999 9.24671 8.59333 9.32671 8.68999 9.42671C8.78666 9.52671 8.85999 9.64671 8.91333 9.78004C8.96666 9.91337 8.99666 10.0567 9.00333 10.2067H10.1967C10.1867 9.89337 10.1233 9.60671 10.0133 9.34671C9.90333 9.08671 9.74333 8.86337 9.54333 8.67337C9.34333 8.48337 9.10333 8.34004 8.82333 8.23671C8.54333 8.13337 8.23333 8.08004 7.89333 8.08004C7.45999 8.08004 7.08333 8.15337 6.76333 8.30337C6.44333 8.45337 6.17666 8.65671 5.96333 8.91671C5.74999 9.17671 5.58999 9.47671 5.48666 9.82004C5.38333 10.1634 5.33333 10.5267 5.33333 10.91V11.0934C5.33333 11.48 5.38666 11.8434 5.48999 12.1867C5.59333 12.53 5.75333 12.83 5.96666 13.0867C6.17999 13.3434 6.44666 13.5467 6.76999 13.6967C7.09333 13.8467 7.46999 13.92 7.90333 13.92C8.21666 13.92 8.50999 13.87 8.78333 13.7667C9.05666 13.6634 9.29666 13.5234 9.50333 13.3434C9.70999 13.1634 9.87666 12.9567 9.99666 12.7167C10.1167 12.4767 10.1867 12.2234 10.1967 11.95H9.00333C8.99666 12.09 8.96333 12.2167 8.90333 12.3367C8.84333 12.4567 8.76333 12.5567 8.66333 12.64C8.56333 12.7234 8.44666 12.79 8.31333 12.8367C8.18666 12.88 8.05333 12.9034 7.90999 12.9034C7.66999 12.8967 7.47333 12.8467 7.31333 12.7467C7.14666 12.64 7.01333 12.5034 6.91666 12.3334C6.81999 12.1634 6.75333 11.97 6.71666 11.75C6.67999 11.53 6.66666 11.3167 6.66666 11.0934V10.91C6.66666 10.6834 6.68333 10.46 6.71999 10.2434Z" fill="white"/>
</svg>
